<mxfile host="www.draw.io" modified="2020-02-26T10:27:12.448Z" agent="Mozilla/5.0 (Windows NT 10.0; Win64; x64) AppleWebKit/537.36 (KHTML, like Gecko) Chrome/79.0.3945.130 Safari/537.36" etag="aJmkdD-D9et-Zth_SpjR" version="12.7.6" type="github">
  <diagram name="Page-1" id="13e1069c-82ec-6db2-03f1-153e76fe0fe0">
    <mxGraphModel dx="1264" dy="534" grid="1" gridSize="10" guides="1" tooltips="1" connect="1" arrows="1" fold="1" page="1" pageScale="1" pageWidth="1100" pageHeight="850" background="#ffffff" math="0" shadow="0">
      <root>
        <mxCell id="0" />
        <mxCell id="1" parent="0" />
        <mxCell id="zdDwKQ-Hy3JtDxFSYleu-1" value="" style="strokeWidth=2;html=1;shape=mxgraph.flowchart.terminator;whiteSpace=wrap;" vertex="1" parent="1">
          <mxGeometry x="840" y="340" width="100" height="60" as="geometry" />
        </mxCell>
        <mxCell id="zdDwKQ-Hy3JtDxFSYleu-8" style="edgeStyle=orthogonalEdgeStyle;rounded=0;orthogonalLoop=1;jettySize=auto;html=1;exitX=0.5;exitY=1;exitDx=0;exitDy=0;exitPerimeter=0;entryX=0.5;entryY=0;entryDx=0;entryDy=0;" edge="1" parent="1" source="zdDwKQ-Hy3JtDxFSYleu-2" target="zdDwKQ-Hy3JtDxFSYleu-5">
          <mxGeometry relative="1" as="geometry" />
        </mxCell>
        <mxCell id="zdDwKQ-Hy3JtDxFSYleu-2" value="启动App" style="strokeWidth=2;html=1;shape=mxgraph.flowchart.start_1;whiteSpace=wrap;" vertex="1" parent="1">
          <mxGeometry x="80" y="30" width="80" height="50" as="geometry" />
        </mxCell>
        <mxCell id="zdDwKQ-Hy3JtDxFSYleu-11" style="edgeStyle=orthogonalEdgeStyle;rounded=0;orthogonalLoop=1;jettySize=auto;html=1;exitX=0.5;exitY=1;exitDx=0;exitDy=0;entryX=0.5;entryY=0;entryDx=0;entryDy=0;" edge="1" parent="1" source="zdDwKQ-Hy3JtDxFSYleu-5" target="zdDwKQ-Hy3JtDxFSYleu-10">
          <mxGeometry relative="1" as="geometry" />
        </mxCell>
        <mxCell id="zdDwKQ-Hy3JtDxFSYleu-5" value="启动计步服务进程" style="rounded=0;whiteSpace=wrap;html=1;" vertex="1" parent="1">
          <mxGeometry x="60" y="110" width="120" height="40" as="geometry" />
        </mxCell>
        <mxCell id="zdDwKQ-Hy3JtDxFSYleu-10" value="绑定计步传感器" style="rounded=0;whiteSpace=wrap;html=1;" vertex="1" parent="1">
          <mxGeometry x="60" y="180" width="120" height="40" as="geometry" />
        </mxCell>
      </root>
    </mxGraphModel>
  </diagram>
</mxfile>
